# Utah Teapot Model
# Version: 1976 - Jim Blinn
# Triangle Mesh Resolution: 2 (216 faces)
o Utah Teapot

v -1.5 2.1 0
v -1.55 1.9875 -0.225
v -1.6 1.875 0
v -2.625 2.04375 0
v -2.51875 1.945313 -0.225
v -2.4125 1.846875 0
v -3 1.65 0
v -2.85 1.65 -0.225
v -2.7 1.65 0
v -1.55 1.9875 0.225
v -2.51875 1.945313 0.225
v -2.85 1.65 0.225
v -2.73125 1.007812 0
v -2.634375 1.103906 -0.225
v -2.5375 1.2 0
v -1.9 0.45 0
v -1.95 0.6 -0.225
v -2 0.75 0
v -2.634375 1.103906 0.225
v -1.95 0.6 0.225
v 2.8 2.25 0
v 3 2.25 -0.1125
v 3.2 2.25 0
v 2.825 2.30625 0
v 3.126563 2.316797 -0.15
v 3.428125 2.327344 0
v 2.7 2.25 0
v 3 2.25 -0.1875
v 3.3 2.25 0
v 3 2.25 0.1125
v 3.126563 2.316797 0.15
v 3 2.25 0.1875
v 2.3875 1.65 0
v 2.5375 1.471875 -0.34125
v 2.6875 1.29375 0
v 1.7 1.275 0
v 1.7 0.8625 -0.495
v 1.7 0.45 0
v 2.5375 1.471875 0.34125
v 1.7 0.8625 0.495
v 0 3 0
v -0.325 2.83125 0
v -0.2310313 2.83125 -0.2310313
v 0 2.83125 -0.325
v -0.2 2.55 0
v -0.142 2.55 -0.142
v 0 2.55 -0.2
v 0.2310313 2.83125 -0.2310313
v 0.325 2.83125 0
v 0.142 2.55 -0.142
v 0.2 2.55 0
v 0 2.83125 0.325
v 0.2310313 2.83125 0.2310313
v 0 2.55 0.2
v 0.142 2.55 0.142
v -0.2310313 2.83125 0.2310313
v -0.142 2.55 0.142
v -0.825 2.4 0
v -0.58575 2.4 -0.58575
v 0 2.4 -0.825
v -1.3 2.25 0
v -0.923 2.25 -0.923
v 0 2.25 -1.3
v 0.58575 2.4 -0.58575
v 0.825 2.4 0
v 0.923 2.25 -0.923
v 1.3 2.25 0
v 0 2.4 0.825
v 0.58575 2.4 0.58575
v 0 2.25 1.3
v 0.923 2.25 0.923
v -0.58575 2.4 0.58575
v -0.923 2.25 0.923
v -1.4 2.25 0
v -0.994 2.25 -0.994
v 0 2.25 -1.4
v -1.403125 2.348438 0
v -0.9962187 2.348438 -0.9962187
v 0 2.348438 -1.403125
v -1.5 2.25 0
v -1.065 2.25 -1.065
v 0 2.25 -1.5
v 0.994 2.25 -0.994
v 1.4 2.25 0
v 0.9962187 2.348438 -0.9962187
v 1.403125 2.348438 0
v 1.065 2.25 -1.065
v 1.5 2.25 0
v 0 2.25 1.4
v 0.994 2.25 0.994
v 0 2.348438 1.403125
v 0.9962187 2.348438 0.9962187
v 0 2.25 1.5
v 1.065 2.25 1.065
v -0.994 2.25 0.994
v -0.9962187 2.348438 0.9962187
v -1.065 2.25 1.065
v -1.84375 1.471875 0
v -1.309063 1.471875 -1.309063
v 0 1.471875 -1.84375
v -2 0.75 0
v -1.42 0.75 -1.42
v 0 0.75 -2
v 1.309063 1.471875 -1.309063
v 1.84375 1.471875 0
v 1.42 0.75 -1.42
v 2 0.75 0
v 0 1.471875 1.84375
v 1.309063 1.471875 1.309063
v 0 0.75 2
v 1.42 0.75 1.42
v -1.309063 1.471875 1.309063
v -1.42 0.75 1.42
v -1.75 0.234375 0
v -1.2425 0.234375 -1.2425
v 0 0.234375 -1.75
v -1.5 0 0
v -1.065 1.117587e-8 -1.065
v 0 0 -1.5
v 1.2425 0.234375 -1.2425
v 1.75 0.234375 0
v 1.065 1.117587e-8 -1.065
v 1.5 0 0
v 0 0.234375 1.75
v 1.2425 0.234375 1.2425
v 0 0 1.5
v 1.065 1.117587e-8 1.065
v -1.2425 0.234375 1.2425
v -1.065 1.117587e-8 1.065

vn 0 1 0
vn 0 0 -1
vn 0 -1 0
vn -0.2873479 0.9578263 0
vn 0 0 -1
vn 0.1961161 -0.9805806 0
vn -1 0 0
vn 0 0 -1
vn 1 0 0
vn 0 0 1
vn 0 0 1
vn 0 0 1
vn -0.8290722 -0.5591416 0
vn 0 0 -1
vn 0.8944272 0.4472137 0
vn -0.5144956 -0.857493 0
vn 0 0 -1
vn 0.5144957 0.8574929 0
vn 0 0 1
vn 0 0 1
vn 0.7071059 -0.7071076 0
vn 0 0 1
vn -0.5144954 0.8574931 0
vn 0 1 0
vn -0.04643553 0.9957836 -0.07911264
vn 0.1414206 0.9899496 0
vn -0.7071068 0.7071068 0
vn 0 0 -1
vn 0.4856427 -0.8741574 0
vn 0 0 -1
vn -0.04643553 0.9957836 0.07911264
vn 0 0 1
vn -0.9529258 0.3032037 0
vn 0.2156225 0.1361827 -0.9669339
vn 0.9756098 -0.2195122 0
vn 0 1 0
vn 0 0 -1
vn 0.2095291 -0.9778025 0
vn 0.2156225 0.1361827 0.9669339
vn 0 0 1
vn 0 1 0
vn -0.8574929 -0.5144958 0
vn -0.605398 -0.5167072 -0.605398
vn 0 -0.5144958 -0.8574929
vn -0.7071068 0.7071067 0
vn -0.4989779 0.7085493 -0.4989779
vn 0 0.7071067 -0.7071068
vn 0.605398 -0.5167072 -0.605398
vn 0.8574929 -0.5144958 0
vn 0.4989779 0.7085493 -0.4989779
vn 0.7071068 0.7071067 0
vn 0 -0.5144958 0.8574929
vn 0.605398 -0.5167072 0.605398
vn 0 0.7071067 0.7071068
vn 0.4989779 0.7085493 0.4989779
vn -0.605398 -0.5167072 0.605398
vn -0.4989779 0.7085493 0.4989779
vn -0.1961161 0.9805807 0
vn -0.1381314 0.9807341 -0.1381314
vn 0 0.9805807 -0.1961161
vn -1 0 0
vn -0.7071068 0 -0.7071068
vn 0 0 -1
vn 0.1381314 0.9807341 -0.1381314
vn 0.1961161 0.9805807 0
vn 0.7071068 0 -0.7071068
vn 1 0 0
vn 0 0.9805807 0.1961161
vn 0.1381314 0.9807341 0.1381314
vn 0 0 1
vn 0.7071068 0 0.7071068
vn -0.1381314 0.9807341 0.1381314
vn -0.7071068 0 0.7071068
vn 0.9417419 -0.3363365 0
vn 0.6656033 -0.3375565 0.6656033
vn 0 -0.3363365 0.9417419
vn 0 1 0
vn 0 1 0
vn 0 1 0
vn -0.9417419 0.3363365 0
vn -0.6656032 0.3375569 -0.6656032
vn 0 0.3363365 -0.9417419
vn -0.6656033 -0.3375565 0.6656033
vn -0.9417419 -0.3363365 0
vn 0 1 0
vn 0 1 0
vn 0.6656032 0.3375569 -0.6656032
vn 0.9417419 0.3363365 0
vn 0 -0.3363365 -0.9417419
vn -0.6656033 -0.3375565 -0.6656033
vn 0 1 0
vn 0 1 0
vn 0 0.3363365 0.9417419
vn 0.6656032 0.3375569 0.6656032
vn 0.6656033 -0.3375565 -0.6656033
vn 0 1 0
vn -0.6656032 0.3375569 0.6656032
vn -0.9635179 0.2676438 0
vn -0.6811101 0.2686601 -0.6811101
vn 0 0.2676438 -0.9635179
vn -1 0 0
vn -0.7071068 0 -0.7071068
vn 0 0 -1
vn 0.6811101 0.2686601 -0.6811101
vn 0.9635179 0.2676438 0
vn 0.7071068 0 -0.7071068
vn 1 0 0
vn 0 0.2676438 0.9635179
vn 0.6811101 0.2686601 0.6811101
vn 0 0 1
vn 0.7071068 0 0.7071068
vn -0.6811101 0.2686601 0.6811101
vn -0.7071068 0 0.7071068
vn -0.792624 -0.6097108 0
vn -0.5596175 -0.6112745 -0.5596175
vn 0 -0.6097108 -0.792624
vn -1 0 0
vn -0.7071068 0 -0.7071068
vn 0 0 -1
vn 0.5596175 -0.6112745 -0.5596175
vn 0.792624 -0.6097108 0
vn 0.7071068 0 -0.7071068
vn 1 0 0
vn 0 -0.6097108 0.792624
vn 0.5596175 -0.6112745 0.5596175
vn 0 0 1
vn 0.7071068 0 0.7071068
vn -0.5596175 -0.6112745 0.5596175
vn -0.7071068 0 0.7071068

vt 0.125 1
vt 0.1835938 1
vt 0.2421875 1
vt 0.125 0.8571429
vt 0.1835938 0.8535714
vt 0.2421875 0.8482143
vt 0.125 0.75
vt 0.1835938 0.75
vt 0.2421875 0.75
vt 0.06640625 1
vt 0.0078125 1
vt 0.06640625 0.8535714
vt 0.0078125 0.8482143
vt 0.06640625 0.75
vt 0.0078125 0.75
vt 0.125 0.6450101
vt 0.1835938 0.6471369
vt 0.2421875 0.6500361
vt 0.125 0.5175
vt 0.1835938 0.5175
vt 0.2421875 0.5175
vt 0.06640625 0.6471369
vt 0.0078125 0.6500361
vt 0.06640625 0.5175
vt 0.0078125 0.5175
vt 0.75 1
vt 0.8125 1
vt 0.875 1
vt 0.75 0.9625
vt 0.8125 0.9614999
vt 0.875 0.9609703
vt 0.75 0.925
vt 0.8125 0.925
vt 0.875 0.925
vt 1 1
vt 0.9375 1
vt 1 0.9625
vt 0.9375 0.9614999
vt 1 0.925
vt 0.9375 0.925
vt 0.75 0.7405194
vt 0.8125 0.7362506
vt 0.875 0.7338991
vt 0.75 0.5132812
vt 0.8125 0.5132812
vt 0.875 0.5132812
vt 1 0.7405194
vt 0.9375 0.7362506
vt 1 0.5132812
vt 0.9375 0.5132812
vt 0.375 0.75
vt 0.375 0.6098246
vt 0.4245822 0.6508355
vt 0.4450877 0.75
vt 0.375 0.515625
vt 0.4578641 0.5842718
vt 0.4921875 0.75
vt 0.4245822 0.8491645
vt 0.375 0.8901754
vt 0.457864 0.9157282
vt 0.375 0.984375
vt 0.3049123 0.75
vt 0.3254178 0.8491645
vt 0.2578125 0.75
vt 0.292136 0.9157282
vt 0.3254178 0.6508355
vt 0.2921359 0.5842718
vt 0.625 0.7139423
vt 0.6377483 0.7245034
vt 0.6430289 0.75
vt 0.625 0.6103284
vt 0.6743875 0.651225
vt 0.6948358 0.75
vt 0.625 0.515625
vt 0.707864 0.5842718
vt 0.7421875 0.75
vt 0.6377483 0.7754967
vt 0.625 0.7860577
vt 0.6743875 0.848775
vt 0.625 0.8896716
vt 0.707864 0.9157282
vt 0.625 0.984375
vt 0.6069711 0.75
vt 0.6122517 0.7754967
vt 0.5551642 0.75
vt 0.5756125 0.848775
vt 0.5078125 0.75
vt 0.542136 0.9157282
vt 0.6122517 0.7245034
vt 0.5756125 0.651225
vt 0.542136 0.5842718
vt 0 0.5
vt 0.125 0.5
vt 0.25 0.5
vt 0 0.479
vt 0.125 0.479
vt 0.25 0.479
vt 0 0.458
vt 0.125 0.458
vt 0.25 0.458
vt 0.375 0.5
vt 0.5 0.5
vt 0.375 0.479
vt 0.5 0.479
vt 0.375 0.458
vt 0.5 0.458
vt 0.75 0.5
vt 0.625 0.5
vt 0.75 0.479
vt 0.625 0.479
vt 0.75 0.458
vt 0.625 0.458
vt 1 0.5
vt 0.875 0.5
vt 1 0.479
vt 0.875 0.479
vt 1 0.458
vt 0.875 0.458
vt 0 0.3586324
vt 0.125 0.3586224
vt 0.25 0.3586324
vt 0 0.269
vt 0.125 0.269
vt 0.25 0.269
vt 0.375 0.3586224
vt 0.5 0.3586324
vt 0.375 0.269
vt 0.5 0.269
vt 0.75 0.3586324
vt 0.625 0.3586224
vt 0.75 0.269
vt 0.625 0.269
vt 1 0.3586324
vt 0.875 0.3586224
vt 1 0.269
vt 0.875 0.269
vt 0 0.1921104
vt 0.125 0.1921341
vt 0.25 0.1921104
vt 0 0.15
vt 0.125 0.15
vt 0.25 0.15
vt 0.375 0.1921341
vt 0.5 0.1921104
vt 0.375 0.15
vt 0.5 0.15
vt 0.75 0.1921104
vt 0.625 0.1921341
vt 0.75 0.15
vt 0.625 0.15
vt 1 0.1921104
vt 0.875 0.1921341
vt 1 0.15
vt 0.875 0.15

f 2/2/2 4/4/4 1/1/1
f 4/4/4 2/2/2 5/5/5
f 3/3/3 5/5/5 2/2/2
f 5/5/5 3/3/3 6/6/6
f 5/5/5 7/7/7 4/4/4
f 7/7/7 5/5/5 8/8/8
f 6/6/6 8/8/8 5/5/5
f 8/8/8 6/6/6 9/9/9
f 4/4/4 10/10/10 1/1/1
f 10/10/10 4/4/4 11/12/11
f 11/12/11 3/11/3 10/10/10
f 3/11/3 11/12/11 6/13/6
f 7/7/7 11/12/11 4/4/4
f 11/12/11 7/7/7 12/14/12
f 12/14/12 6/13/6 11/12/11
f 6/13/6 12/14/12 9/15/9
f 8/8/8 13/16/13 7/7/7
f 13/16/13 8/8/8 14/17/14
f 9/9/9 14/17/14 8/8/8
f 14/17/14 9/9/9 15/18/15
f 14/17/14 16/19/16 13/16/13
f 16/19/16 14/17/14 17/20/17
f 15/18/15 17/20/17 14/17/14
f 17/20/17 15/18/15 18/21/18
f 13/16/13 12/14/12 7/7/7
f 12/14/12 13/16/13 19/22/19
f 19/22/19 9/15/9 12/14/12
f 9/15/9 19/22/19 15/23/15
f 16/19/16 19/22/19 13/16/13
f 19/22/19 16/19/16 20/24/20
f 20/24/20 15/23/15 19/22/19
f 15/23/15 20/24/20 18/25/18
f 22/27/22 24/29/24 21/26/21
f 24/29/24 22/27/22 25/30/25
f 23/28/23 25/30/25 22/27/22
f 25/30/25 23/28/23 26/31/26
f 25/30/25 27/32/27 24/29/24
f 27/32/27 25/30/25 28/33/28
f 26/31/26 28/33/28 25/30/25
f 28/33/28 26/31/26 29/34/29
f 24/37/24 30/36/30 21/35/21
f 30/36/30 24/37/24 31/38/31
f 31/38/31 23/28/23 30/36/30
f 23/28/23 31/38/31 26/31/26
f 27/39/27 31/38/31 24/37/24
f 31/38/31 27/39/27 32/40/32
f 32/40/32 26/31/26 31/38/31
f 26/31/26 32/40/32 29/34/29
f 28/33/28 33/41/33 27/32/27
f 33/41/33 28/33/28 34/42/34
f 29/34/29 34/42/34 28/33/28
f 34/42/34 29/34/29 35/43/35
f 34/42/34 36/44/36 33/41/33
f 36/44/36 34/42/34 37/45/37
f 35/43/35 37/45/37 34/42/34
f 37/45/37 35/43/35 38/46/38
f 33/47/33 32/40/32 27/39/27
f 32/40/32 33/47/33 39/48/39
f 39/48/39 29/34/29 32/40/32
f 29/34/29 39/48/39 35/43/35
f 36/49/36 39/48/39 33/47/33
f 39/48/39 36/49/36 40/50/40
f 40/50/40 35/43/35 39/48/39
f 35/43/35 40/50/40 38/46/38
f 41/51/41 43/53/43 42/52/42
f 41/51/41 44/54/44 43/53/43
f 43/53/43 45/55/45 42/52/42
f 45/55/45 43/53/43 46/56/46
f 44/54/44 46/56/46 43/53/43
f 46/56/46 44/54/44 47/57/47
f 41/51/41 48/58/48 44/54/44
f 41/51/41 49/59/49 48/58/48
f 48/58/48 47/57/47 44/54/44
f 47/57/47 48/58/48 50/60/50
f 49/59/49 50/60/50 48/58/48
f 50/60/50 49/59/49 51/61/51
f 52/62/52 53/63/53 41/51/41
f 53/63/53 49/59/49 41/51/41
f 54/64/54 53/63/53 52/62/52
f 53/63/53 54/64/54 55/65/55
f 55/65/55 49/59/49 53/63/53
f 49/59/49 55/65/55 51/61/51
f 42/52/42 56/66/56 41/51/41
f 56/66/56 52/62/52 41/51/41
f 45/55/45 56/66/56 42/52/42
f 56/66/56 45/55/45 57/67/57
f 57/67/57 52/62/52 56/66/56
f 52/62/52 57/67/57 54/64/54
f 46/69/46 58/71/58 45/68/45
f 58/71/58 46/69/46 59/72/59
f 47/70/47 59/72/59 46/69/46
f 59/72/59 47/70/47 60/73/60
f 59/72/59 61/74/61 58/71/58
f 61/74/61 59/72/59 62/75/62
f 60/73/60 62/75/62 59/72/59
f 62/75/62 60/73/60 63/76/63
f 50/77/50 60/73/60 47/70/47
f 60/73/60 50/77/50 64/79/64
f 51/78/51 64/79/64 50/77/50
f 64/79/64 51/78/51 65/80/65
f 64/79/64 63/76/63 60/73/60
f 63/76/63 64/79/64 66/81/66
f 65/80/65 66/81/66 64/79/64
f 66/81/66 65/80/65 67/82/67
f 68/85/68 55/84/55 54/83/54
f 55/84/55 68/85/68 69/86/69
f 69/86/69 51/78/51 55/84/55
f 51/78/51 69/86/69 65/80/65
f 70/87/70 69/86/69 68/85/68
f 69/86/69 70/87/70 71/88/71
f 71/88/71 65/80/65 69/86/69
f 65/80/65 71/88/71 67/82/67
f 58/71/58 57/89/57 45/68/45
f 57/89/57 58/71/58 72/90/72
f 72/90/72 54/83/54 57/89/57
f 54/83/54 72/90/72 68/85/68
f 61/74/61 72/90/72 58/71/58
f 72/90/72 61/74/61 73/91/73
f 73/91/73 68/85/68 72/90/72
f 68/85/68 73/91/73 70/87/70
f 75/93/75 77/95/77 74/92/74
f 77/95/77 75/93/75 78/96/78
f 76/94/76 78/96/78 75/93/75
f 78/96/78 76/94/76 79/97/79
f 78/96/78 80/98/80 77/95/77
f 80/98/80 78/96/78 81/99/81
f 79/97/79 81/99/81 78/96/78
f 81/99/81 79/97/79 82/100/82
f 83/101/83 79/97/79 76/94/76
f 79/97/79 83/101/83 85/103/85
f 84/102/84 85/103/85 83/101/83
f 85/103/85 84/102/84 86/104/86
f 85/103/85 82/100/82 79/97/79
f 82/100/82 85/103/85 87/105/87
f 86/104/86 87/105/87 85/103/85
f 87/105/87 86/104/86 88/106/88
f 91/109/91 90/108/90 89/107/89
f 90/108/90 91/109/91 92/110/92
f 92/110/92 84/102/84 90/108/90
f 84/102/84 92/110/92 86/104/86
f 93/111/93 92/110/92 91/109/91
f 92/110/92 93/111/93 94/112/94
f 94/112/94 86/104/86 92/110/92
f 86/104/86 94/112/94 88/106/88
f 77/115/77 95/114/95 74/113/74
f 95/114/95 77/115/77 96/116/96
f 96/116/96 89/107/89 95/114/95
f 89/107/89 96/116/96 91/109/91
f 80/117/80 96/116/96 77/115/77
f 96/116/96 80/117/80 97/118/97
f 97/118/97 91/109/91 96/116/96
f 91/109/91 97/118/97 93/111/93
f 81/99/81 98/119/98 80/98/80
f 98/119/98 81/99/81 99/120/99
f 82/100/82 99/120/99 81/99/81
f 99/120/99 82/100/82 100/121/100
f 99/120/99 101/122/101 98/119/98
f 101/122/101 99/120/99 102/123/102
f 100/121/100 102/123/102 99/120/99
f 102/123/102 100/121/100 103/124/103
f 87/105/87 100/121/100 82/100/82
f 100/121/100 87/105/87 104/125/104
f 88/106/88 104/125/104 87/105/87
f 104/125/104 88/106/88 105/126/105
f 104/125/104 103/124/103 100/121/100
f 103/124/103 104/125/104 106/127/106
f 105/126/105 106/127/106 104/125/104
f 106/127/106 105/126/105 107/128/107
f 108/129/108 94/112/94 93/111/93
f 94/112/94 108/129/108 109/130/109
f 109/130/109 88/106/88 94/112/94
f 88/106/88 109/130/109 105/126/105
f 110/131/110 109/130/109 108/129/108
f 109/130/109 110/131/110 111/132/111
f 111/132/111 105/126/105 109/130/109
f 105/126/105 111/132/111 107/128/107
f 98/133/98 97/118/97 80/117/80
f 97/118/97 98/133/98 112/134/112
f 112/134/112 93/111/93 97/118/97
f 93/111/93 112/134/112 108/129/108
f 101/135/101 112/134/112 98/133/98
f 112/134/112 101/135/101 113/136/113
f 113/136/113 108/129/108 112/134/112
f 108/129/108 113/136/113 110/131/110
f 102/123/102 114/137/114 101/122/101
f 114/137/114 102/123/102 115/138/115
f 103/124/103 115/138/115 102/123/102
f 115/138/115 103/124/103 116/139/116
f 115/138/115 117/140/117 114/137/114
f 117/140/117 115/138/115 118/141/118
f 116/139/116 118/141/118 115/138/115
f 118/141/118 116/139/116 119/142/119
f 106/127/106 116/139/116 103/124/103
f 116/139/116 106/127/106 120/143/120
f 107/128/107 120/143/120 106/127/106
f 120/143/120 107/128/107 121/144/121
f 120/143/120 119/142/119 116/139/116
f 119/142/119 120/143/120 122/145/122
f 121/144/121 122/145/122 120/143/120
f 122/145/122 121/144/121 123/146/123
f 124/147/124 111/132/111 110/131/110
f 111/132/111 124/147/124 125/148/125
f 125/148/125 107/128/107 111/132/111
f 107/128/107 125/148/125 121/144/121
f 126/149/126 125/148/125 124/147/124
f 125/148/125 126/149/126 127/150/127
f 127/150/127 121/144/121 125/148/125
f 121/144/121 127/150/127 123/146/123
f 114/151/114 113/136/113 101/135/101
f 113/136/113 114/151/114 128/152/128
f 128/152/128 110/131/110 113/136/113
f 110/131/110 128/152/128 124/147/124
f 117/153/117 128/152/128 114/151/114
f 128/152/128 117/153/117 129/154/129
f 129/154/129 124/147/124 128/152/128
f 124/147/124 129/154/129 126/149/126
